<svg width="24" height="18" viewBox="0 0 24 18" fill="none" xmlns="http://www.w3.org/2000/svg">
<path fill-rule="evenodd" clip-rule="evenodd" d="M22.5 16.5H21.75V7.75031C21.75 7.24896 21.4995 6.78075 21.0825 6.5025L12.8325 1.00219C12.3287 0.666305 11.6723 0.666305 11.1684 1.00219L2.91844 6.5025C2.50103 6.78053 2.2502 7.24878 2.25 7.75031V16.5H1.5C1.08579 16.5 0.75 16.8358 0.75 17.25C0.75 17.6642 1.08579 18 1.5 18H22.5C22.9142 18 23.25 17.6642 23.25 17.25C23.25 16.8358 22.9142 16.5 22.5 16.5V16.5ZM3.75 7.75031L12 2.25L20.25 7.74938V16.5H18V11.25C18 10.8358 17.6642 10.5 17.25 10.5H6.75C6.33579 10.5 6 10.8358 6 11.25V16.5H3.75V7.75031ZM16.5 12V13.5H12.75V12H16.5ZM11.25 13.5H7.5V12H11.25V13.5ZM7.5 15H11.25V16.5H7.5V15ZM12.75 15H16.5V16.5H12.75V15Z" fill="#0D171C"/>
</svg>
