<svg width="22" height="22" viewBox="0 0 22 22" fill="none" xmlns="http://www.w3.org/2000/svg">
<path fill-rule="evenodd" clip-rule="evenodd" d="M15.7556 5.11938C15.7556 5.7407 15.2519 6.24438 14.6306 6.24438C14.0093 6.24438 13.5056 5.7407 13.5056 5.11938C13.5056 4.49805 14.0093 3.99438 14.6306 3.99438C15.2519 3.99438 15.7556 4.49805 15.7556 5.11938V5.11938ZM19.4934 12.7131C17.5472 15.1853 14.445 16.5325 10.2675 16.7228L8.205 21.5434C8.08694 21.8211 7.81394 22.001 7.51219 22H7.46438C7.14768 21.9802 6.87775 21.7632 6.79031 21.4581L5.40188 16.5972L0.54375 15.2059C0.237841 15.12 0.0192739 14.8507 -0.00179237 14.5336C-0.0228586 14.2166 0.158148 13.9206 0.45 13.795L5.27156 11.7325C5.45906 7.55406 6.81 4.45188 9.28312 2.50656C13.3341 -0.680937 19.1184 0.36625 20.2369 0.608125C20.8124 0.732471 21.2619 1.182 21.3862 1.7575C21.6337 2.875 22.6819 8.665 19.4934 12.7188V12.7131ZM15.15 14.1822C13.3801 13.508 12.1592 11.8717 12.0169 9.98312C10.1287 9.84108 8.49269 8.62049 7.81875 6.85094C7.1625 8.33781 6.81 10.1425 6.75938 12.2528C6.75223 12.5463 6.57455 12.8086 6.30469 12.9241L2.985 14.3444L6.21562 15.2697C6.46452 15.3409 6.65908 15.5355 6.73031 15.7844L7.65281 19.015L9.07594 15.6953C9.19185 15.4245 9.45552 15.2467 9.75 15.2406C11.8575 15.1909 13.6622 14.8366 15.15 14.1822V14.1822ZM19.9247 2.07531C18.9216 1.85781 13.7372 0.91375 10.215 3.68594C9.77105 4.03582 9.36761 4.43423 9.01219 4.87375C8.93935 5.86571 9.30777 6.8393 10.0191 7.53452C10.7304 8.22975 11.7121 8.57582 12.7022 8.48031C12.9248 8.45919 13.1452 8.5385 13.3034 8.69663C13.4615 8.85475 13.5408 9.07519 13.5197 9.29781C13.4241 10.2882 13.7704 11.2703 14.4661 11.9817C15.1617 12.6931 16.1358 13.0612 17.1281 12.9878C17.567 12.633 17.9648 12.2302 18.3141 11.7869C21.0862 8.26469 20.1422 3.07938 19.9247 2.07531V2.07531Z" fill="#0D171C"/>
</svg>
