<svg width="24" height="25" viewBox="0 0 24 25" fill="none" xmlns="http://www.w3.org/2000/svg">
<g clip-path="url(#clip0_24_227)">
<path fill-rule="evenodd" clip-rule="evenodd" d="M12 3.1875C6.61522 3.1875 2.25 7.55272 2.25 12.9375C2.25 18.3223 6.61522 22.6875 12 22.6875C17.3848 22.6875 21.75 18.3223 21.75 12.9375C21.7443 7.55508 17.3824 3.19318 12 3.1875V3.1875ZM12.75 21.1528V15.1875H15C15.4142 15.1875 15.75 14.8517 15.75 14.4375C15.75 14.0233 15.4142 13.6875 15 13.6875H12.75V11.4375C12.75 10.6091 13.4216 9.9375 14.25 9.9375H15.75C16.1642 9.9375 16.5 9.60171 16.5 9.1875C16.5 8.77329 16.1642 8.4375 15.75 8.4375H14.25C12.5931 8.4375 11.25 9.78065 11.25 11.4375V13.6875H9C8.58579 13.6875 8.25 14.0233 8.25 14.4375C8.25 14.8517 8.58579 15.1875 9 15.1875H11.25V21.1528C6.85788 20.7519 3.55787 16.9674 3.75854 12.5616C3.95922 8.15577 7.58962 4.68697 12 4.68697C16.4104 4.68697 20.0408 8.15577 20.2415 12.5616C20.4421 16.9674 17.1421 20.7519 12.75 21.1528V21.1528Z" fill="#7E8EA5"/>
</g>
<defs>
<clipPath id="clip0_24_227">
<rect width="24" height="24" fill="white" transform="translate(0 0.9375)"/>
</clipPath>
</defs>
</svg>
