<svg width="24" height="25" viewBox="0 0 24 25" fill="none" xmlns="http://www.w3.org/2000/svg">
<g clip-path="url(#clip0_24_231)">
<path fill-rule="evenodd" clip-rule="evenodd" d="M12 8.4375C9.51472 8.4375 7.5 10.4522 7.5 12.9375C7.5 15.4228 9.51472 17.4375 12 17.4375C14.4853 17.4375 16.5 15.4228 16.5 12.9375C16.4974 10.4533 14.4842 8.44008 12 8.4375V8.4375ZM12 15.9375C10.3431 15.9375 9 14.5944 9 12.9375C9 11.2806 10.3431 9.9375 12 9.9375C13.6569 9.9375 15 11.2806 15 12.9375C15 14.5944 13.6569 15.9375 12 15.9375V15.9375ZM16.5 3.1875H7.5C4.60179 3.1906 2.2531 5.53929 2.25 8.4375V17.4375C2.2531 20.3357 4.60179 22.6844 7.5 22.6875H16.5C19.3982 22.6844 21.7469 20.3357 21.75 17.4375V8.4375C21.7469 5.53929 19.3982 3.1906 16.5 3.1875V3.1875ZM20.25 17.4375C20.25 19.5086 18.5711 21.1875 16.5 21.1875H7.5C5.42893 21.1875 3.75 19.5086 3.75 17.4375V8.4375C3.75 6.36643 5.42893 4.6875 7.5 4.6875H16.5C18.5711 4.6875 20.25 6.36643 20.25 8.4375V17.4375ZM18 8.0625C18 8.68382 17.4963 9.1875 16.875 9.1875C16.2537 9.1875 15.75 8.68382 15.75 8.0625C15.75 7.44118 16.2537 6.9375 16.875 6.9375C17.4963 6.9375 18 7.44118 18 8.0625V8.0625Z" fill="#7E8EA5"/>
</g>
<defs>
<clipPath id="clip0_24_231">
<rect width="24" height="24" fill="white" transform="translate(0 0.9375)"/>
</clipPath>
</defs>
</svg>
