<svg width="18" height="21" viewBox="0 0 18 21" fill="none" xmlns="http://www.w3.org/2000/svg">
<path fill-rule="evenodd" clip-rule="evenodd" d="M8.25 4.5C8.25 4.91421 7.91421 5.25 7.5 5.25H6C5.58579 5.25 5.25 4.91421 5.25 4.5C5.25 4.08579 5.58579 3.75 6 3.75H7.5C7.91421 3.75 8.25 4.08579 8.25 4.5V4.5ZM13.155 16.9819L13.485 19.2881C13.5464 19.7186 13.418 20.1545 13.1331 20.4829C12.8482 20.8114 12.4348 21 12 21H6C5.5652 21 5.15179 20.8114 4.86688 20.4829C4.58196 20.1545 4.45358 19.7186 4.515 19.2881L4.845 16.9819C1.86956 15.4312 0.00250539 12.3553 0 9C0 8.58579 0.335786 8.25 0.75 8.25H2.25V2.25C2.25 1.42157 2.92157 0.75 3.75 0.75H14.25C15.0784 0.75 15.75 1.42157 15.75 2.25V8.25H17.25C17.6642 8.25 18 8.58579 18 9C17.9975 12.3553 16.1304 15.4312 13.155 16.9819V16.9819ZM3.75 8.25H14.25V2.25H3.75V8.25ZM11.7253 17.5781C9.95197 18.1406 8.04803 18.1406 6.27469 17.5781L6 19.5H12L11.7253 17.5781ZM16.4625 9.75H1.5375C1.92222 13.5828 5.14794 16.5009 9 16.5009C12.8521 16.5009 16.0778 13.5828 16.4625 9.75V9.75Z" fill="#0D171C"/>
</svg>
