<svg width="24" height="25" viewBox="0 0 24 25" fill="none" xmlns="http://www.w3.org/2000/svg">
<g clip-path="url(#clip0_24_235)">
<path fill-rule="evenodd" clip-rule="evenodd" d="M23.1928 7.40063C23.0768 7.12035 22.8033 6.93756 22.5 6.9375H19.6472C18.8359 5.55722 17.3604 4.70329 15.7594 4.6875C14.5747 4.67196 13.4339 5.13504 12.5953 5.97188C11.7322 6.81888 11.2472 7.97821 11.25 9.1875V9.75844C7.47563 8.76281 4.38844 5.6925 4.35563 5.65969C4.15019 5.45243 3.84318 5.38316 3.56865 5.48211C3.29411 5.58106 3.1019 5.83027 3.07594 6.12094C2.67188 10.6012 3.97312 13.5994 5.13844 15.3253C5.70664 16.1785 6.39786 16.943 7.18969 17.5941C5.76188 19.2375 3.51375 20.1009 3.48938 20.1103C3.27498 20.1906 3.109 20.3644 3.03868 20.5823C2.96837 20.8002 3.00142 21.0383 3.12844 21.2288C3.19875 21.3338 3.48 21.7022 4.16719 22.0462C5.01656 22.4719 6.13875 22.6875 7.5 22.6875C14.1253 22.6875 19.6612 17.5856 20.2266 11.0212L23.0306 8.21812C23.2451 8.00351 23.3091 7.68085 23.1928 7.40063V7.40063ZM18.9741 10.1578C18.8455 10.2867 18.7682 10.458 18.7566 10.6397C18.375 16.5544 13.4325 21.1875 7.5 21.1875C6.51 21.1875 5.8125 21.0563 5.32312 20.8988C6.40219 20.3128 7.90688 19.305 8.87438 17.8538C8.98915 17.6813 9.02746 17.469 8.98023 17.2673C8.93299 17.0655 8.80442 16.8923 8.625 16.7887C8.58094 16.7634 4.50844 14.3194 4.5 7.78875C6 9.0075 8.74219 10.8984 11.8753 11.4253C12.0927 11.462 12.3151 11.4011 12.4836 11.259C12.652 11.1169 12.7495 10.9079 12.75 10.6875V9.1875C12.7483 8.37926 13.0728 7.60452 13.65 7.03875C14.2034 6.48436 14.9574 6.17733 15.7406 6.1875C16.9275 6.2025 18.0366 6.92625 18.5006 7.98844C18.6202 8.26132 18.8899 8.43758 19.1878 8.4375H20.6878L18.9741 10.1578Z" fill="#7E8EA5"/>
</g>
<defs>
<clipPath id="clip0_24_235">
<rect width="24" height="24" fill="white" transform="translate(0 0.9375)"/>
</clipPath>
</defs>
</svg>
