<svg width="22" height="21" viewBox="0 0 22 21" fill="none" xmlns="http://www.w3.org/2000/svg">
<path fill-rule="evenodd" clip-rule="evenodd" d="M21.5 10.3716C21.1507 6.36639 18.5536 2.90867 14.8044 1.45718C11.0551 0.00569308 6.80676 0.813216 3.85156 3.53906C1.91774 5.31563 0.722995 7.75466 0.504688 10.3716C0.4687 10.7903 0.610048 11.205 0.894319 11.5145C1.17859 11.8241 1.5797 12.0002 2 12H10.25V17.25C10.25 18.9069 11.5931 20.25 13.25 20.25C14.9069 20.25 16.25 18.9069 16.25 17.25C16.25 16.8358 15.9142 16.5 15.5 16.5C15.0858 16.5 14.75 16.8358 14.75 17.25C14.75 18.0784 14.0784 18.75 13.25 18.75C12.4216 18.75 11.75 18.0784 11.75 17.25V12H20C20.4211 12.0015 20.8235 11.826 21.1088 11.5163C21.3941 11.2065 21.5361 10.7911 21.5 10.3716V10.3716ZM2 10.5V10.5C2.34133 6.53268 5.24535 3.25937 9.14375 2.44781C8.045 3.9375 6.67344 6.57281 6.51594 10.5H2ZM8.01406 10.5C8.14438 7.61531 9.00125 5.54906 9.72969 4.29C10.0889 3.66455 10.5148 3.07988 11 2.54625C11.4843 3.07996 11.9093 3.66463 12.2675 4.29C13.5125 6.44062 13.9062 8.745 13.9831 10.5H8.01406ZM15.4813 10.5C15.3238 6.57281 13.9522 3.9375 12.8562 2.44313C16.7575 3.25294 19.663 6.52986 20 10.5H15.4813Z" fill="#0D171C"/>
</svg>
