<svg width="24" height="24" viewBox="0 0 24 24" fill="none" xmlns="http://www.w3.org/2000/svg">
<path fill-rule="evenodd" clip-rule="evenodd" d="M3.21846 7.2825C3.07706 7.14175 2.99756 6.95045 2.99756 6.75094C2.99756 6.55142 3.07706 6.36013 3.21846 6.21938C3.29065 6.14906 4.97815 4.5 8.25003 4.5C9.9769 4.5 11.2725 5.36344 12.4163 6.12563C13.4757 6.8325 14.4769 7.5 15.75 7.5C16.778 7.51534 17.7959 7.29637 18.7266 6.85969C19.0875 6.69316 19.4231 6.47632 19.7232 6.21562C20.0172 5.92386 20.4922 5.92575 20.7839 6.21984C21.0757 6.51394 21.0738 6.98886 20.7797 7.28062C20.7094 7.35094 19.0219 9 15.75 9C14.0232 9 12.7275 8.13656 11.5838 7.37437C10.5244 6.6675 9.52315 6 8.25003 6C7.22209 5.98466 6.20416 6.20363 5.27346 6.64031C4.91251 6.80684 4.57699 7.02368 4.2769 7.28438C3.98375 7.57527 3.51058 7.57443 3.21846 7.2825ZM19.7232 11.4656C19.4231 11.7263 19.0875 11.9432 18.7266 12.1097C17.7959 12.5464 16.778 12.7653 15.75 12.75C14.4769 12.75 13.4757 12.0825 12.4163 11.3756C11.2725 10.6134 9.9769 9.75 8.25003 9.75C4.97815 9.75 3.29065 11.3991 3.22034 11.4694C2.92625 11.7611 2.92436 12.2361 3.21612 12.5302C3.50788 12.8242 3.98281 12.8261 4.2769 12.5344C4.57699 12.2737 4.91251 12.0568 5.27346 11.8903C6.20416 11.4536 7.22209 11.2347 8.25003 11.25C9.52315 11.25 10.5244 11.9175 11.5838 12.6244C12.7275 13.3866 14.0213 14.25 15.75 14.25C19.0219 14.25 20.7094 12.6009 20.7797 12.5306C21.0738 12.2389 21.0757 11.7639 20.7839 11.4698C20.4922 11.1758 20.0172 11.1739 19.7232 11.4656ZM19.7232 16.7156C19.4231 16.9763 19.0875 17.1932 18.7266 17.3597C17.7959 17.7964 16.778 18.0153 15.75 18C14.4769 18 13.4757 17.3325 12.4163 16.6256C11.2725 15.8634 9.9769 15 8.25003 15C4.97815 15 3.29065 16.6491 3.22034 16.7194C2.92625 17.0111 2.92436 17.4861 3.21612 17.7802C3.50788 18.0742 3.98281 18.0761 4.2769 17.7844C4.57699 17.5237 4.91251 17.3068 5.27346 17.1403C6.20416 16.7036 7.22209 16.4847 8.25003 16.5C9.52315 16.5 10.5244 17.1675 11.5838 17.8744C12.7275 18.6366 14.0213 19.5 15.75 19.5C19.0219 19.5 20.7094 17.8509 20.7797 17.7806C21.0738 17.4889 21.0757 17.0139 20.7839 16.7198C20.4922 16.4258 20.0172 16.4239 19.7232 16.7156Z" fill="#0D171C"/>
</svg>
